<?xml version="1.0" encoding="UTF-8" standalone="no"?>
<!-- Created with Inkscape (http://www.inkscape.org/) -->

<svg
   xmlns:dc="http://purl.org/dc/elements/1.1/"
   xmlns:cc="http://creativecommons.org/ns#"
   xmlns:rdf="http://www.w3.org/1999/02/22-rdf-syntax-ns#"
   xmlns:svg="http://www.w3.org/2000/svg"
   xmlns="http://www.w3.org/2000/svg"
   xmlns:xlink="http://www.w3.org/1999/xlink"
   xmlns:sodipodi="http://sodipodi.sourceforge.net/DTD/sodipodi-0.dtd"
   xmlns:inkscape="http://www.inkscape.org/namespaces/inkscape"
   version="1.0"
   width="1094.7753"
   height="388.66501"
   viewBox="0 0 1771 1237.62"
   id="svg2"
   xml:space="preserve"
   sodipodi:docname="logo.svg"
   inkscape:export-filename="/home/jazg/work/bip/src/bip/static/img/logo.svg.png"
   inkscape:export-xdpi="29.639923"
   inkscape:export-ydpi="29.639923"
   inkscape:version="0.92.3 (2405546, 2018-03-11)"><metadata
   id="metadata53"><rdf:RDF><cc:Work
       rdf:about=""><dc:format>image/svg+xml</dc:format><dc:type
         rdf:resource="http://purl.org/dc/dcmitype/StillImage" /><dc:title></dc:title></cc:Work></rdf:RDF></metadata><sodipodi:namedview
   pagecolor="#ffffff"
   bordercolor="#666666"
   borderopacity="1"
   objecttolerance="10"
   gridtolerance="10"
   guidetolerance="10"
   inkscape:pageopacity="0"
   inkscape:pageshadow="2"
   inkscape:window-width="1386"
   inkscape:window-height="780"
   id="namedview51"
   showgrid="false"
   inkscape:zoom="1"
   inkscape:cx="547.38763"
   inkscape:cy="194.3325"
   inkscape:window-x="1656"
   inkscape:window-y="93"
   inkscape:window-maximized="0"
   inkscape:current-layer="g2337"
   inkscape:pagecheckerboard="true" />
 <defs
   id="defs4">
  <style
   type="text/css"
   id="style6" />
  <linearGradient
   x1="384.267"
   y1="618.80798"
   x2="623.04901"
   y2="618.80798"
   id="id0"
   gradientUnits="userSpaceOnUse">
   <stop
   style="stop-color:#da251d;stop-opacity:1"
   offset="0"
   id="stop9" />
   <stop
   style="stop-color:#89211b;stop-opacity:1"
   offset="0.50196099"
   id="stop11" />
  </linearGradient>
 <linearGradient
   x1="384.267"
   y1="618.80798"
   x2="623.04901"
   y2="618.80798"
   id="linearGradient2335"
   xlink:href="#id0"
   gradientUnits="userSpaceOnUse" /><linearGradient
   x1="384.267"
   y1="618.80798"
   x2="623.04901"
   y2="618.80798"
   id="linearGradient2405"
   xlink:href="#id0"
   gradientUnits="userSpaceOnUse"
   gradientTransform="translate(-338.28062,424.3829)" />
  
  
  
 </defs>
 
<g
   transform="matrix(3.1826893,0,0,3.1826893,-856.12546,-2701.34)"
   style="fill-rule:evenodd"
   id="g2337"><g
     id="g4624"><rect
       id="rect2339"
       style="opacity:0;fill:#ffffff;fill-opacity:1;fill-rule:nonzero;stroke:none;stroke-width:5.5;stroke-linecap:round;stroke-miterlimit:4;stroke-dasharray:none;stroke-dashoffset:0;stroke-opacity:1"
       y="848.76019"
       x="-0.44382375"
       height="388.8598"
       width="1095.3237" /><path
       d="m -0.44362,1168.6359 h 263.685 l 67.9588,68.9841 v -221.401 h -331.644 v 152.417 z m 172.359,-272.282 c -3.89801,0 -7.06012,3.16211 -7.06012,7.06248 v 42.1209 c 0,0.0284 0.008,0.0532 0.008,0.0815 0.0449,15.9074 12.9934,28.837 28.9173,28.837 15.9511,0 28.9291,-12.9733 28.9291,-28.9185 0,-15.9523 -12.978,-28.9232 -28.9291,-28.9232 -5.41233,0 -10.4667,1.5214 -14.8006,4.11771 v -17.3154 c 0,-3.90037 -3.15857,-7.06248 -7.06485,-7.06248 z m 21.8655,34.3852 c 8.16338,0 14.7959,6.64079 14.7959,14.7983 0,8.16101 -6.63252,14.7935 -14.7959,14.7935 -8.15511,0 -14.8006,-6.63252 -14.8006,-14.7935 0,-8.15747 6.64551,-14.7983 14.8006,-14.7983 z m 43.4569,-14.073 c -3.90628,0 -7.06485,3.16684 -7.06485,7.06366 v 24.1476 c 0,8.56381 1.20484,20.552 11.6102,25.793 3.4834,1.75056 7.73223,0.34492 9.48634,-3.13731 1.74938,-3.48931 0.34492,-7.72987 -3.13849,-9.48397 -0.94733,-0.47367 -3.83304,-1.93483 -3.83304,-13.1717 v -24.1476 c 0,-3.89683 -3.15739,-7.06366 -7.06012,-7.06366 z m 0.004,-20.2838 c -4.29726,0 -7.77239,3.4775 -7.77239,7.77239 0,4.29017 3.47513,7.76294 7.77239,7.76294 4.28545,0 7.76885,-3.47277 7.76885,-7.76294 0,-4.2949 -3.4834,-7.77239 -7.76885,-7.77239 z m 36.418,89.5065 v -15.5861 c 4.33388,2.59749 9.38711,4.11653 14.7959,4.11653 15.9476,0 28.9209,-12.9709 28.9209,-28.9209 0,-15.9464 -12.9733,-28.9209 -28.9209,-28.9209 -15.9476,0 -28.9256,12.9745 -28.9256,28.9209 v 40.3905 c 0,3.90273 3.16211,7.06012 7.06485,7.06012 3.90273,0 7.06485,-3.15739 7.06485,-7.06012 z m 14.7959,-55.1852 c 8.15511,0 14.7959,6.63606 14.7959,14.7947 0,8.15865 -6.64079,14.7947 -14.7959,14.7947 -8.16338,0 -14.7959,-6.63606 -14.7959,-14.7947 0,-8.15865 6.63252,-14.7947 14.7959,-14.7947 z m -288.899,-81.9432 v 14.3955 h 331.644 v -14.3955 z"
       style="fill:url(#linearGradient2405)"
       id="path2345"
       inkscape:connector-curvature="0" /><g
       transform="translate(-338.28062,424.3829)"
       id="g2347">
   <path
   d="m 707.518,502.866 c -11.8913,0 -16.0503,-7.28928 -16.0503,-18.049 v -42.7836 h 7.80547 v 24.2125 h 0.17836 c 1.9053,-4.25237 6.16122,-6.59708 10.7597,-6.59708 12.0614,0 14.0553,12.5847 14.0553,22.0426 0,11.4554 -3.90628,21.1745 -16.7484,21.1745 z m 0.52092,-37.1409 c -6.59354,0 -8.76579,10.3262 -8.76579,15.4467 0,5.64148 -0.17128,15.6216 7.81255,15.6216 7.63419,0 8.50593,-9.72022 8.50593,-15.3617 0,-4.85952 -0.6922,-15.7066 -7.55269,-15.7066 z"
   style="fill:#000000"
   id="path2349"
   inkscape:connector-curvature="0" />
   <path
   d="m 735.026,450.886 v -8.8532 h 9.36821 v 8.8532 z m 0.78196,51.0261 v -41.3094 h 7.81255 v 41.3094 z"
   style="fill:#000000"
   id="path2351"
   inkscape:connector-curvature="0" />
   <path
   d="m 782.232,501.912 v -8.85084 h -0.17128 c -2.08366,5.81276 -6.60063,9.80408 -13.1044,9.80408 -8.33347,0 -11.1093,-6.42108 -11.1093,-13.6241 v -28.6386 h 7.81374 v 22.5647 c 0,1.73402 0,3.38418 0.0815,5.12057 0.25986,3.90391 1.1316,6.76836 5.5588,6.76836 7.63419,0 10.931,-10.8483 10.931,-16.9221 v -17.5316 h 7.81255 v 41.3094 h -7.81255 z"
   style="fill:#000000"
   id="path2353"
   inkscape:connector-curvature="0" />
   <polygon
   points="812.874,501.912 805.06,501.912 805.06,442.033 812.874,442.033 "
   style="fill:#000000"
   id="polygon2355" />
   <path
   d="m 832.391,478.22 c 0,9.28671 4.77683,18.5734 15.1869,18.5734 2.78294,0 5.29775,-0.52092 7.81255,-1.47534 v 6.16122 c -3.47513,0.78078 -6.77072,1.38675 -10.3274,1.38675 -14.7557,0 -20.4775,-10.0651 -20.4775,-23.6042 0,-11.2806 4.94811,-19.6129 16.8311,-19.6129 10.0675,0 14.9258,7.118 14.9258,16.5748 v 1.99625 h -23.9515 z m 16.1472,-5.20679 c 0,-4.42483 -3.21527,-7.2881 -7.55269,-7.2881 -3.38654,0 -6.25099,1.64779 -7.63419,4.77329 -0.34964,0.7796 -0.61069,1.7352 -0.61069,2.51481 h 15.7976 z"
   style="fill:#000000"
   id="path2357"
   inkscape:connector-curvature="0" />
   <path
   d="m 878.123,466.679 v 22.0415 c 0,4.60083 1.13042,8.07242 6.60063,8.07242 1.3832,0 2.85618,-0.17482 4.15788,-0.60833 v 6.07499 c -1.99389,0.43351 -4.07755,0.60597 -6.16003,0.60597 -7.28455,0 -12.4039,-2.16871 -12.4039,-10.0651 v -26.1214 h -7.38141 v -6.07617 h 7.38141 v -9.71667 l 7.80547,-4.86188 v 14.5786 h 11.459 v 6.07617 h -11.459 z"
   style="fill:#000000"
   id="path2359"
   inkscape:connector-curvature="0" />
   <polygon
   points="902.075,519.701 907.886,502.172 892.179,460.603 900.855,460.603 911.704,490.457 911.882,490.457 921.6,460.603 930.276,460.603 909.71,519.701 "
   style="fill:#000000"
   id="polygon2361" />
   <path
   d="m 962.123,501.912 v -22.5636 c 0,-1.64779 0,-3.383 -0.0803,-5.12175 -0.26105,-3.8165 -1.1316,-6.76718 -5.55998,-6.76718 -7.63419,0 -10.9298,10.8471 -10.9298,16.9233 v 17.5292 h -7.81374 v -41.3094 h 7.81374 v 8.8532 h 0.17009 c 2.34471,-5.90253 6.60063,-9.80763 13.1044,-9.80763 8.24488,0 11.1093,6.42226 11.1093,13.6253 v 28.6386 h -7.81374 z"
   style="fill:#000000"
   id="path2363"
   inkscape:connector-curvature="0" />
   <path
   d="m 692.42,540.193 v -8.8532 h 9.36821 v 8.8532 z m 0.78196,51.0249 v -41.3071 h 7.81255 v 41.3071 z"
   style="fill:#000000"
   id="path2365"
   inkscape:connector-curvature="0" />
   <path
   d="m 740.057,591.218 v -22.5624 c 0,-1.64779 0,-3.383 -0.0827,-5.12057 -0.25987,-3.81769 -1.13042,-6.76718 -5.55762,-6.76718 -7.63537,0 -10.93101,10.8459 -10.93101,16.9221 v 17.528 h -7.81374 v -41.3071 h 7.81374 v 8.85202 h 0.17128 c 2.34353,-5.90253 6.60063,-9.80763 13.1032,-9.80763 8.24488,0 11.1093,6.42226 11.1093,13.6253 v 28.6374 h -7.81255 z"
   style="fill:#000000"
   id="path2367"
   inkscape:connector-curvature="0" />
   <path
   d="m 788.913,537.676 c -2.6849,-0.78196 -5.37925,-1.21547 -8.23661,-1.21547 -5.5588,0 -8.0736,4.07755 -8.0736,9.1993 v 4.25119 h 12.3224 v 6.07499 h -12.3224 v 35.2321 h -7.81255 v -35.2321 h -7.4641 v -6.07499 h 7.4641 v -4.77211 c 0,-10.3285 5.90017,-14.7534 15.7964,-14.7534 2.77585,0 5.64148,0.17246 8.32638,0.78078 v 6.50967 z"
   style="fill:#000000"
   id="path2369"
   inkscape:connector-curvature="0" />
   <path
   d="m 808.357,592.172 c -13.2745,0 -18.3124,-9.45917 -18.3124,-21.608 0,-12.0614 5.03788,-21.6091 18.3124,-21.6091 13.193,0 18.2226,9.54776 18.2226,21.6091 0,12.0637 -5.02961,21.608 -18.2226,21.608 z m 0,-37.1409 c -8.59452,0 -9.62808,8.85084 -9.62808,15.533 0,6.59708 1.03356,15.5353 9.62808,15.5353 8.50475,0 9.54658,-9.02684 9.54658,-15.5353 0,-6.50849 -0.95206,-15.533 -9.54658,-15.533 z"
   style="fill:#000000"
   id="path2371"
   inkscape:connector-curvature="0" />
   <path
   d="m 857.995,557.461 c -9.97772,0 -12.9319,7.20305 -12.9319,16.2287 v 17.528 h -7.80547 v -41.3071 h 7.80547 v 8.33111 h 0.17836 c 1.99389,-5.81512 6.59236,-9.28671 12.7536,-9.28671 v 8.50593 z"
   style="fill:#000000"
   id="path2373"
   inkscape:connector-curvature="0" />
   <path
   d="m 912.403,591.218 v -22.5624 c 0,-1.47416 0,-3.12431 -0.0815,-4.77329 -0.25987,-3.99132 -0.87056,-7.11446 -5.6403,-7.11446 -6.07971,0 -9.11543,9.98008 -9.11543,14.666 v 19.7842 h -7.81255 v -22.5624 c 0,-1.47416 0,-3.12431 -0.0815,-4.77329 -0.26105,-3.81887 -0.70046,-7.11446 -5.37925,-7.11446 -6.86168,0 -9.37648,11.8003 -9.37648,16.9221 v 17.528 h -7.81374 v -41.3071 h 7.81374 v 8.2437 h 0.17128 c 1.82261,-5.20679 5.5588,-9.1993 11.5487,-9.1993 5.6403,0 9.71785,3.12549 10.4986,8.76579 h 0.17127 c 2.08366,-5.11938 6.07144,-8.76579 11.7117,-8.76579 8.33347,0 11.1991,6.42226 11.1991,13.6253 v 28.6374 h -7.81374 z"
   style="fill:#000000"
   id="path2375"
   inkscape:connector-curvature="0" />
   <path
   d="m 953.627,591.218 v -5.1182 h -0.17836 c -1.8238,3.90391 -6.42226,6.07263 -10.6711,6.07263 -6.942,0 -11.72,-3.99132 -11.72,-11.107 0,-11.6279 13.6241,-13.5391 22.5695,-13.5391 v -7.20187 c 0,-0.43351 -0.26105,-0.95442 -0.34964,-1.38793 -0.95324,-2.77704 -3.21527,-3.9051 -5.99112,-3.9051 -4.07755,0 -6.59236,2.2573 -6.59236,6.33367 h -8.2437 c 0,-9.19812 7.20187,-12.4098 15.4467,-12.4098 9.02566,0 13.5355,4.42601 13.5355,13.2792 v 28.9835 h -7.80547 z m 0,-18.4848 h -1.56275 c -4.8666,0 -12.3307,2.17107 -12.3307,8.07242 0,2.51599 1.65252,5.2942 4.51697,5.2942 5.38043,0 9.37648,-6.16358 9.37648,-11.0219 v -2.34471 z"
   style="fill:#000000"
   id="path2377"
   inkscape:connector-curvature="0" />
   <path
   d="m 995.191,563.361 c 0,-4.25237 -1.21311,-8.32993 -6.33131,-8.32993 -6.60063,0 -8.42442,7.3755 -8.42442,12.5823 0,10.4136 5.11938,18.486 16.4083,18.486 2.33526,0 4.41893,-0.176 6.59233,-0.86937 v 5.37925 c -3.73615,1.12924 -7.55266,1.56275 -11.45897,1.56275 -13.8852,0 -20.2177,-10.325 -20.2177,-23.0833 0,-11.4554 5.20916,-20.1338 17.6214,-20.1338 9.36703,0 14.74747,5.03434 14.74747,14.4061 h -8.93704 z"
   style="fill:#000000"
   id="path2379"
   inkscape:connector-curvature="0" />
   <path
   d="m 1021.92,594.777 c 0,11.1081 -8.4244,15.0121 -18.3124,15.0121 -0.782,0 -1.473,-0.085 -2.2549,-0.17246 v -6.16122 c 1.0418,0.17364 2.0836,0.26105 3.1172,0.26105 8.6843,0 9.6363,-4.94693 9.6363,-12.2374 v -41.5681 h 7.8138 v 44.8661 z m -8.5945,-54.5839 v -8.8532 h 9.3753 v 8.8532 z"
   style="fill:#000000"
   id="path2381"
   inkscape:connector-curvature="0" />
   <path
   d="m 1036.06,540.193 v -8.8532 h 9.3753 v 8.8532 z m 0.7808,51.0249 v -41.3071 h 7.8137 v 41.3071 z"
   style="fill:#000000"
   id="path2383"
   inkscape:connector-curvature="0" />
   <path
   d="m 1104.88,592.172 c -4.6871,0 -9.1154,-2.0813 -11.0196,-6.59354 h -0.1795 v 24.2102 h -7.8043 v -59.8781 h 7.8043 v 6.24863 h 0.1795 c 1.8226,-4.42601 6.7636,-7.20423 11.4507,-7.20423 11.3704,0 14.145,11.6291 14.145,20.9158 0,9.37176 -2.7747,22.3013 -14.5762,22.3013 z m -2.3435,-37.1409 c -7.0318,0 -8.8556,10.3262 -8.8556,15.6204 0,5.81276 1.3029,15.4479 9.0268,15.4479 7.3815,0 8.0736,-10.1537 8.0736,-15.5353 0,-5.55289 -0.6106,-15.533 -8.2448,-15.533 z"
   style="fill:#000000"
   id="path2385"
   inkscape:connector-curvature="0" />
   <path
   d="m 1154.08,591.218 v -8.85084 h -0.1784 c -2.0836,5.81394 -6.5923,9.80526 -13.1032,9.80526 -8.3263,0 -11.1093,-6.42108 -11.1093,-13.6241 v -28.6374 h 7.8126 v 22.5647 c 0,1.73284 0,3.383 0.09,5.1182 0.2598,3.9051 1.1233,6.76954 5.5505,6.76954 7.6342,0 10.938,-10.8483 10.938,-16.9221 v -17.5304 h 7.8055 v 41.3071 h -7.8055 z"
   style="fill:#000000"
   id="path2387"
   inkscape:connector-curvature="0" />
   <path
   d="m 1191.22,592.172 c -11.8901,0 -16.0492,-7.28928 -16.0492,-18.049 v -42.7836 h 7.8055 v 24.2125 h 0.1783 c 1.9042,-4.25237 6.1613,-6.59708 10.7597,-6.59708 12.0614,0 14.0553,12.5858 14.0553,22.0426 0,11.4554 -3.9062,21.1745 -16.7496,21.1745 z m 0.5209,-37.1409 c -6.5923,0 -8.7646,10.3262 -8.7646,15.4479 0,5.6403 -0.1713,15.6204 7.8126,15.6204 7.6341,0 8.5047,-9.72022 8.5047,-15.3629 0,-4.85834 -0.691,-15.7054 -7.5527,-15.7054 z"
   style="fill:#000000"
   id="path2389"
   inkscape:connector-curvature="0" />
   <polygon
   points="1227.33,591.218 1219.51,591.218 1219.51,531.34 1227.33,531.34 "
   style="fill:#000000"
   id="polygon2391" />
   <path
   d="m 1242.07,540.193 v -8.8532 h 9.3765 v 8.8532 z m 0.782,51.0249 v -41.3071 h 7.8125 v 41.3071 z"
   style="fill:#000000"
   id="path2393"
   inkscape:connector-curvature="0" />
   <path
   d="m 1285.72,563.361 c 0,-4.25237 -1.2119,-8.32993 -6.3313,-8.32993 -6.5924,0 -8.4162,7.3755 -8.4162,12.5823 0,10.4136 5.1194,18.486 16.4,18.486 2.3436,0 4.4272,-0.176 6.5924,-0.86937 v 5.37925 c -3.7279,1.12924 -7.5444,1.56275 -11.4507,1.56275 -13.8852,0 -20.2177,-10.325 -20.2177,-23.0833 0,-11.4554 5.2009,-20.1338 17.6131,-20.1338 9.3753,0 14.7557,5.03434 14.7557,14.4061 z"
   style="fill:#000000"
   id="path2395"
   inkscape:connector-curvature="0" />
   <polygon
   points="1328.68,591.218 1298.39,591.218 1298.39,585.143 1318.44,555.986 1299.7,555.986 1299.7,549.911 1327.9,549.911 1327.9,555.814 1307.85,585.143 1328.68,585.143 "
   style="fill:#000000"
   id="polygon2397" />
   <path
   d="m 1362.17,591.218 v -22.5624 c 0,-1.64779 0,-3.383 -0.082,-5.12057 -0.2611,-3.81769 -1.1316,-6.76718 -5.5588,-6.76718 -7.6342,0 -10.9298,10.8459 -10.9298,16.9221 v 17.528 h -7.8137 v -41.3071 h 7.8137 v 8.85202 h 0.1701 c 2.3447,-5.90253 6.6006,-9.80763 13.1032,-9.80763 8.2449,0 11.1093,6.42226 11.1093,13.6253 v 28.6374 h -7.8126 z"
   style="fill:#000000"
   id="path2399"
   inkscape:connector-curvature="0" />
   <path
   d="m 1388.56,567.526 c 0,9.28671 4.778,18.5734 15.1869,18.5734 2.7829,0 5.2989,-0.52092 7.8137,-1.47534 v 6.16122 c -3.4763,0.78078 -6.7719,1.38675 -10.3285,1.38675 -14.7557,0 -20.4775,-10.0651 -20.4775,-23.6042 0,-11.2794 4.9481,-19.6129 16.8311,-19.6129 10.0675,0 14.927,7.118 14.927,16.576 v 1.99507 z m 16.1472,-5.20679 c 0,-4.42483 -3.2153,-7.2881 -7.5527,-7.2881 -3.3853,0 -6.251,1.64898 -7.6342,4.77329 -0.3496,0.7796 -0.6107,1.73639 -0.6107,2.51481 z"
   style="fill:#000000"
   id="path2401"
   inkscape:connector-curvature="0" />
   <path
   d="m 1432.38,594.777 c 0,11.1081 -8.4244,15.0121 -18.3124,15.0121 -0.782,0 -1.4742,-0.085 -2.2549,-0.17246 v -6.16122 c 1.0418,0.17364 2.0836,0.26105 3.1172,0.26105 8.6843,0 9.6363,-4.94693 9.6363,-12.2374 v -41.5681 h 7.8138 v 44.8661 z m -8.5945,-54.5839 v -8.8532 h 9.3753 v 8.8532 z"
   style="fill:#000000"
   id="path2403"
   inkscape:connector-curvature="0" />
  </g></g></g></svg>